# xmcd
#
# Track frame offsets: 
#        150
#        9306
#        19638
#        30342
#        40445
#        51296
#        58903
#        68753
#        81124
#        91131
#        103809
#        111800
#        123541
#        134488
#        147140
#        156138
#        168574
#        178539
#        192058
#        202912
#        211257
#        224702
#        233968
#        242878
#
# Disc length: 3370 seconds
#
# Revision: 0
# Processed by: cddbd v1.5.2PL0 Copyright (c) Steve Scherf et al.
# Submitted via: ExactAudioCopyFreeDBPlugin 1.0
#
DISCID=540d2818
DTITLE=Cash, Johnny - The Complete Releases 1957-1962 [CD6]
DYEAR=1962
DGENRE=Country
TTITLE0=Blue Train
TTITLE1=There You Go
TTITLE2=Train Of Love
TTITLE3=Goodbye Little Darlin' Goodbye
TTITLE4=I Heard That Lonesome Whistle
TTITLE5=Come In Stranger
TTITLE6=Rock Island Line
TTITLE7=Give My Love To Rose
TTITLE8=Hey Porter
TTITLE9=Folsom Prison Blues
TTITLE10=The Wreck Of The Old 97
TTITLE11=So Doggone Lonesome
TTITLE12=He'll Understand And Say Well Done
TTITLE13=God Must Have My Fortune Laid Away
TTITLE14=I Got Shoes
TTITLE15=When I've Learned Enough To Die
TTITLE16=Let The Lower Lights Be Burning
TTITLE17=If We Never Meet Again
TTITLE18=When I Take My Vacation In Heaven
TTITLE19=Taller Than Trees
TTITLE20=I Won't Have To Cross Jordan Alone
TTITLE21=When We Reached Down His Hand For Me
TTITLE22=My God Is Real Yes God Is Real
TTITLE23=These Hands
EXTD=
EXTT0=
EXTT1=
EXTT2=
EXTT3=
EXTT4=
EXTT5=
EXTT6=
EXTT7=
EXTT8=
EXTT9=
EXTT10=
EXTT11=
EXTT12=
EXTT13=
EXTT14=
EXTT15=
EXTT16=
EXTT17=
EXTT18=
EXTT19=
EXTT20=
EXTT21=
EXTT22=
EXTT23=
PLAYORDER=
